<mxfile host="Electron" modified="2023-04-20T14:45:42.913Z" agent="Mozilla/5.0 (X11; Linux x86_64) AppleWebKit/537.36 (KHTML, like Gecko) draw.io/21.1.2 Chrome/106.0.5249.199 Electron/21.4.3 Safari/537.36" etag="jw1KoAGLXWS3kB-5ih7-" version="21.1.2" type="device" pages="5">
  <diagram id="9AjnnbNAk49L-ehh__Q5" name="Platform">
    <mxGraphModel dx="1434" dy="76" grid="1" gridSize="10" guides="1" tooltips="1" connect="1" arrows="1" fold="1" page="0" pageScale="1" pageWidth="827" pageHeight="1169" math="0" shadow="0">
      <root>
        <mxCell id="0" />
        <mxCell id="1" parent="0" />
        <mxCell id="F_0XimiSwu_zv6C4Vu4W-1" value="scpo:Platform" style="graphMlID=n4;shape=rect;rounded=1;arcsize=30;fillColor=#ffff00;strokeColor=#000000;strokeWidth=1.0" parent="1" vertex="1">
          <mxGeometry x="120" y="1200" width="120" height="40" as="geometry" />
        </mxCell>
        <mxCell id="F_0XimiSwu_zv6C4Vu4W-2" value="xsd:Literal" style="graphMlID=n6;shape=parallelogram;fillColor=#ccffcc;strokeColor=#000000;strokeWidth=1.0" parent="1" vertex="1">
          <mxGeometry x="440" y="1040" width="120" height="40" as="geometry" />
        </mxCell>
        <mxCell id="F_0XimiSwu_zv6C4Vu4W-3" value="" style="graphMlID=e2;rounded=0;endArrow=block;strokeColor=#008000;strokeWidth=1.0;startArrow=oval;startFill=0;endFill=0;edgeStyle=orthogonalEdgeStyle;" parent="1" source="F_0XimiSwu_zv6C4Vu4W-1" target="F_0XimiSwu_zv6C4Vu4W-2" edge="1">
          <mxGeometry relative="1" as="geometry">
            <mxPoint x="160" y="1030" as="sourcePoint" />
            <mxPoint x="-280.1892089843752" y="910.1803426299535" as="targetPoint" />
            <Array as="points">
              <mxPoint x="200" y="1060" />
            </Array>
          </mxGeometry>
        </mxCell>
        <mxCell id="F_0XimiSwu_zv6C4Vu4W-4" value="&lt;span style=&quot;color: rgb(0, 128, 0); font-size: 12px; background-color: rgb(248, 249, 250);&quot;&gt;dcterms:identifier&lt;/span&gt;" style="text;html=1;align=center;verticalAlign=middle;resizable=0;points=[];labelBackgroundColor=#ffffff;fontSize=12;fontFamily=Helvetica;" parent="F_0XimiSwu_zv6C4Vu4W-3" vertex="1" connectable="0">
          <mxGeometry relative="1" as="geometry">
            <mxPoint x="70" as="offset" />
          </mxGeometry>
        </mxCell>
        <mxCell id="F_0XimiSwu_zv6C4Vu4W-5" value="xsd:anyURI" style="graphMlID=n6;shape=parallelogram;fillColor=#ccffcc;strokeColor=#000000;strokeWidth=1.0" parent="1" vertex="1">
          <mxGeometry x="440" y="960" width="120" height="40" as="geometry" />
        </mxCell>
        <mxCell id="F_0XimiSwu_zv6C4Vu4W-6" value="xsd:String" style="graphMlID=n6;shape=parallelogram;fillColor=#ccffcc;strokeColor=#000000;strokeWidth=1.0" parent="1" vertex="1">
          <mxGeometry x="440" y="1120" width="120" height="40" as="geometry" />
        </mxCell>
        <mxCell id="F_0XimiSwu_zv6C4Vu4W-7" value="" style="graphMlID=e2;rounded=0;endArrow=block;strokeColor=#008000;strokeWidth=1.0;startArrow=oval;startFill=0;endFill=0;align=center;edgeStyle=orthogonalEdgeStyle;" parent="1" source="F_0XimiSwu_zv6C4Vu4W-1" target="F_0XimiSwu_zv6C4Vu4W-5" edge="1">
          <mxGeometry relative="1" as="geometry">
            <mxPoint x="160" y="1030" as="sourcePoint" />
            <mxPoint x="-29.96091843180352" y="830" as="targetPoint" />
            <Array as="points">
              <mxPoint x="180" y="980" />
            </Array>
          </mxGeometry>
        </mxCell>
        <mxCell id="F_0XimiSwu_zv6C4Vu4W-8" value="&lt;span style=&quot;color: rgb(0, 128, 0); font-size: 12px; background-color: rgb(248, 249, 250);&quot;&gt;schema:url&lt;/span&gt;" style="text;html=1;align=center;verticalAlign=middle;resizable=0;points=[];labelBackgroundColor=#ffffff;fontSize=12;fontFamily=Helvetica;" parent="F_0XimiSwu_zv6C4Vu4W-7" vertex="1" connectable="0">
          <mxGeometry relative="1" as="geometry">
            <mxPoint x="120" as="offset" />
          </mxGeometry>
        </mxCell>
        <mxCell id="F_0XimiSwu_zv6C4Vu4W-9" value="" style="graphMlID=e2;rounded=0;endArrow=block;strokeColor=#008000;strokeWidth=1.0;startArrow=oval;startFill=0;endFill=0;align=center;edgeStyle=orthogonalEdgeStyle;" parent="1" source="F_0XimiSwu_zv6C4Vu4W-1" target="F_0XimiSwu_zv6C4Vu4W-6" edge="1">
          <mxGeometry relative="1" as="geometry">
            <mxPoint x="160" y="1030" as="sourcePoint" />
            <mxPoint x="-19.96091843180352" y="840" as="targetPoint" />
            <Array as="points">
              <mxPoint x="220" y="1140" />
            </Array>
          </mxGeometry>
        </mxCell>
        <mxCell id="F_0XimiSwu_zv6C4Vu4W-10" value="&lt;span style=&quot;color: rgb(0, 128, 0); font-size: 12px; background-color: rgb(248, 249, 250);&quot;&gt;schema:name&lt;br&gt;&lt;/span&gt;" style="text;html=1;align=center;verticalAlign=middle;resizable=0;points=[];labelBackgroundColor=#ffffff;fontSize=12;fontFamily=Helvetica;" parent="F_0XimiSwu_zv6C4Vu4W-9" vertex="1" connectable="0">
          <mxGeometry relative="1" as="geometry">
            <mxPoint x="20" as="offset" />
          </mxGeometry>
        </mxCell>
        <mxCell id="F_0XimiSwu_zv6C4Vu4W-11" value="foaf:Organization" style="graphMlID=n4;shape=rect;rounded=1;arcsize=30;fillColor=#ffff00;strokeColor=#000000;strokeWidth=1.0;fontFamily=Helvetica;" parent="1" vertex="1">
          <mxGeometry x="439.9999999999999" y="880" width="120" height="40" as="geometry" />
        </mxCell>
        <mxCell id="F_0XimiSwu_zv6C4Vu4W-12" value="" style="graphMlID=e0;rounded=0;endArrow=block;strokeColor=#000080;strokeWidth=1.0;startArrow=oval;startFill=1;endFill=1;fontFamily=Helvetica;align=center;edgeStyle=orthogonalEdgeStyle;" parent="1" source="F_0XimiSwu_zv6C4Vu4W-1" target="F_0XimiSwu_zv6C4Vu4W-11" edge="1">
          <mxGeometry relative="1" as="geometry">
            <mxPoint x="40" y="720" as="sourcePoint" />
            <mxPoint x="-29" y="840" as="targetPoint" />
            <Array as="points">
              <mxPoint x="160" y="900" />
            </Array>
          </mxGeometry>
        </mxCell>
        <mxCell id="F_0XimiSwu_zv6C4Vu4W-13" value="&lt;font color=&quot;#000080&quot; style=&quot;font-size: 12px;&quot;&gt;&lt;span style=&quot;font-size: 12px; background-color: rgb(248, 249, 250);&quot;&gt;dcterms:relation&lt;/span&gt;&lt;/font&gt;" style="text;html=1;align=center;verticalAlign=middle;resizable=0;points=[];labelBackgroundColor=#ffffff;fontSize=12;fontFamily=Helvetica;" parent="F_0XimiSwu_zv6C4Vu4W-12" vertex="1" connectable="0">
          <mxGeometry relative="1" as="geometry">
            <mxPoint x="160" y="-11" as="offset" />
          </mxGeometry>
        </mxCell>
        <mxCell id="F_0XimiSwu_zv6C4Vu4W-19" value="scpo:Evaluation-&#xa;Policy" style="graphMlID=n4;shape=rect;rounded=1;arcsize=30;fillColor=#ffff00;strokeColor=#000000;strokeWidth=1.0" parent="1" vertex="1">
          <mxGeometry x="560" y="1340" width="120" height="40" as="geometry" />
        </mxCell>
        <mxCell id="F_0XimiSwu_zv6C4Vu4W-20" value="scpo:Publication-&#xa;ElsewherePolicy" style="graphMlID=n4;shape=rect;rounded=1;arcsize=30;fillColor=#ffff00;strokeColor=#000000;strokeWidth=1.0" parent="1" vertex="1">
          <mxGeometry x="560" y="1400" width="120" height="40" as="geometry" />
        </mxCell>
        <mxCell id="F_0XimiSwu_zv6C4Vu4W-21" value="scpo:Policy" style="graphMlID=n4;shape=rect;rounded=1;arcsize=30;fillColor=#ffff00;strokeColor=#000000;strokeWidth=1.0" parent="1" vertex="1">
          <mxGeometry x="440" y="1197" width="120" height="40" as="geometry" />
        </mxCell>
        <mxCell id="F_0XimiSwu_zv6C4Vu4W-22" value="scpo:Publication-&#xa;Policy" style="graphMlID=n4;shape=rect;rounded=1;arcsize=30;fillColor=#ffff00;strokeColor=#000000;strokeWidth=1.0" parent="1" vertex="1">
          <mxGeometry x="560" y="1280" width="120" height="40" as="geometry" />
        </mxCell>
        <mxCell id="F_0XimiSwu_zv6C4Vu4W-29" value="" style="graphMlID=e0;rounded=0;endArrow=block;strokeColor=#000080;strokeWidth=1.0;startArrow=oval;startFill=1;endFill=1;fontFamily=Helvetica;fontSize=11;" parent="1" source="F_0XimiSwu_zv6C4Vu4W-1" target="F_0XimiSwu_zv6C4Vu4W-21" edge="1">
          <mxGeometry relative="1" as="geometry">
            <mxPoint x="170" y="1191.5384615384614" as="sourcePoint" />
            <mxPoint x="570" y="1068.4615384615386" as="targetPoint" />
          </mxGeometry>
        </mxCell>
        <mxCell id="F_0XimiSwu_zv6C4Vu4W-30" value="&lt;span style=&quot;color: rgb(0, 0, 128); font-size: 12px; background-color: rgb(248, 249, 250);&quot;&gt;scpo:hasPolicy&lt;/span&gt;" style="text;html=1;align=center;verticalAlign=middle;resizable=0;points=[];labelBackgroundColor=#ffffff;fontSize=12;fontFamily=Helvetica;" parent="F_0XimiSwu_zv6C4Vu4W-29" vertex="1" connectable="0">
          <mxGeometry relative="1" as="geometry">
            <mxPoint as="offset" />
          </mxGeometry>
        </mxCell>
        <mxCell id="4ZBPLWLX_0Z4DQOEi4qm-1" style="edgeStyle=orthogonalEdgeStyle;rounded=0;orthogonalLoop=1;jettySize=auto;html=1;fontFamily=Helvetica;fontSize=12;" parent="1" source="F_0XimiSwu_zv6C4Vu4W-20" target="F_0XimiSwu_zv6C4Vu4W-21" edge="1">
          <mxGeometry relative="1" as="geometry">
            <mxPoint x="922" y="1105" as="sourcePoint" />
            <mxPoint x="832" y="885" as="targetPoint" />
            <Array as="points">
              <mxPoint x="500" y="1420" />
            </Array>
          </mxGeometry>
        </mxCell>
        <mxCell id="4ZBPLWLX_0Z4DQOEi4qm-2" style="edgeStyle=orthogonalEdgeStyle;rounded=0;orthogonalLoop=1;jettySize=auto;html=1;fontFamily=Helvetica;fontSize=12;" parent="1" source="F_0XimiSwu_zv6C4Vu4W-19" target="F_0XimiSwu_zv6C4Vu4W-21" edge="1">
          <mxGeometry relative="1" as="geometry">
            <mxPoint x="922" y="1185" as="sourcePoint" />
            <mxPoint x="832" y="885" as="targetPoint" />
            <Array as="points">
              <mxPoint x="500" y="1360" />
            </Array>
          </mxGeometry>
        </mxCell>
        <mxCell id="4ZBPLWLX_0Z4DQOEi4qm-3" value="" style="endArrow=classic;html=1;textDirection=ltr;rounded=0;edgeStyle=orthogonalEdgeStyle;" parent="1" source="F_0XimiSwu_zv6C4Vu4W-22" target="F_0XimiSwu_zv6C4Vu4W-21" edge="1">
          <mxGeometry width="50" height="50" relative="1" as="geometry">
            <mxPoint x="922" y="1025" as="sourcePoint" />
            <mxPoint x="832" y="885" as="targetPoint" />
            <Array as="points">
              <mxPoint x="500" y="1300" />
            </Array>
          </mxGeometry>
        </mxCell>
        <mxCell id="4ZBPLWLX_0Z4DQOEi4qm-4" value="rdfs:subClassOf" style="text;html=1;align=center;verticalAlign=middle;resizable=0;points=[];labelBackgroundColor=#ffffff;rotation=0;fontFamily=Helvetica;fontSize=12;" parent="4ZBPLWLX_0Z4DQOEi4qm-3" vertex="1" connectable="0">
          <mxGeometry x="-0.2211" relative="1" as="geometry">
            <mxPoint x="-12" y="-30" as="offset" />
          </mxGeometry>
        </mxCell>
      </root>
    </mxGraphModel>
  </diagram>
  <diagram id="DpkohsHSQypHiACqNhp4" name="Identifier">
    <mxGraphModel dx="1434" dy="876" grid="1" gridSize="10" guides="1" tooltips="1" connect="1" arrows="1" fold="1" page="0" pageScale="1" pageWidth="827" pageHeight="1169" background="none" math="0" shadow="0">
      <root>
        <mxCell id="0" />
        <mxCell id="1" parent="0" />
        <mxCell id="uXc9PLOgi6FMu5m9OY-l-2" value="scpo:Platform" style="graphMlID=n4;shape=rect;rounded=1;arcsize=30;fillColor=#ffff00;strokeColor=#000000;strokeWidth=1.0;fontFamily=Helvetica;" parent="1" vertex="1">
          <mxGeometry x="360" y="280" width="160" height="40" as="geometry" />
        </mxCell>
        <mxCell id="uXc9PLOgi6FMu5m9OY-l-8" value="xsd:String" style="graphMlID=n6;shape=parallelogram;fillColor=#ccffcc;strokeColor=#000000;strokeWidth=1.0" parent="1" vertex="1">
          <mxGeometry x="720" width="126.09" height="40" as="geometry" />
        </mxCell>
        <mxCell id="uXc9PLOgi6FMu5m9OY-l-11" value="xsd:String" style="graphMlID=n6;shape=parallelogram;fillColor=#ccffcc;strokeColor=#000000;strokeWidth=1.0" parent="1" vertex="1">
          <mxGeometry x="720" y="80" width="126.09" height="40" as="geometry" />
        </mxCell>
        <mxCell id="usg2qc-wE2mQrx90kM3m-1" value="xsd:anyURI" style="graphMlID=n6;shape=parallelogram;fillColor=#ccffcc;strokeColor=#000000;strokeWidth=1.0" parent="1" vertex="1">
          <mxGeometry x="720" y="360" width="126.0949682107173" height="43" as="geometry" />
        </mxCell>
        <mxCell id="lhMrlvGYys9Os50Xt3gn-1" value="" style="graphMlID=e2;rounded=0;endArrow=block;strokeColor=#008000;strokeWidth=1.0;startArrow=oval;startFill=0;endFill=0;edgeStyle=entityRelationEdgeStyle;" parent="1" source="uXc9PLOgi6FMu5m9OY-l-2" target="uXc9PLOgi6FMu5m9OY-l-8" edge="1">
          <mxGeometry relative="1" as="geometry">
            <mxPoint x="250" y="430" as="sourcePoint" />
            <mxPoint x="526.8107910156248" y="430.18034262995354" as="targetPoint" />
          </mxGeometry>
        </mxCell>
        <mxCell id="lhMrlvGYys9Os50Xt3gn-2" value="&lt;span style=&quot;color: rgb(0, 128, 0); font-size: 12px; background-color: rgb(248, 249, 250);&quot;&gt;fabio:hasIssnL&lt;/span&gt;" style="text;html=1;align=right;verticalAlign=middle;resizable=0;points=[];labelBackgroundColor=#ffffff;fontSize=12;fontFamily=Helvetica;" parent="lhMrlvGYys9Os50Xt3gn-1" vertex="1" connectable="0">
          <mxGeometry x="-0.0896" y="3" relative="1" as="geometry">
            <mxPoint x="80" y="-153" as="offset" />
          </mxGeometry>
        </mxCell>
        <mxCell id="IPl7vRSe11yOwly88ItS-1" value="xsd:String" style="graphMlID=n6;shape=parallelogram;fillColor=#ccffcc;strokeColor=#000000;strokeWidth=1.0" parent="1" vertex="1">
          <mxGeometry x="720" y="240" width="126.09" height="40" as="geometry" />
        </mxCell>
        <mxCell id="IPl7vRSe11yOwly88ItS-2" value="" style="graphMlID=e2;rounded=0;endArrow=block;strokeColor=#008000;strokeWidth=1.0;startArrow=oval;startFill=0;endFill=0;edgeStyle=entityRelationEdgeStyle;" parent="1" source="uXc9PLOgi6FMu5m9OY-l-2" target="IPl7vRSe11yOwly88ItS-1" edge="1">
          <mxGeometry relative="1" as="geometry">
            <mxPoint x="113.0078163136393" y="380" as="sourcePoint" />
            <mxPoint x="199.81079101562477" y="490.18034262995354" as="targetPoint" />
          </mxGeometry>
        </mxCell>
        <mxCell id="IPl7vRSe11yOwly88ItS-3" value="&lt;span style=&quot;color: rgb(0, 128, 0); font-size: 12px; background-color: rgb(248, 249, 250);&quot;&gt;prism:doi&lt;/span&gt;" style="text;html=1;align=right;verticalAlign=middle;resizable=0;points=[];labelBackgroundColor=#ffffff;fontSize=12;fontFamily=Helvetica;" parent="IPl7vRSe11yOwly88ItS-2" vertex="1" connectable="0">
          <mxGeometry x="-0.0896" y="3" relative="1" as="geometry">
            <mxPoint x="79" y="-20" as="offset" />
          </mxGeometry>
        </mxCell>
        <mxCell id="IPl7vRSe11yOwly88ItS-4" value="xsd:String" style="graphMlID=n6;shape=parallelogram;fillColor=#ccffcc;strokeColor=#000000;strokeWidth=1.0" parent="1" vertex="1">
          <mxGeometry x="720" y="520" width="126.0949682107173" height="43" as="geometry" />
        </mxCell>
        <mxCell id="IPl7vRSe11yOwly88ItS-5" value="" style="graphMlID=e2;rounded=0;endArrow=block;strokeColor=#008000;strokeWidth=1.0;startArrow=oval;startFill=0;endFill=0;edgeStyle=entityRelationEdgeStyle;" parent="1" source="uXc9PLOgi6FMu5m9OY-l-2" target="IPl7vRSe11yOwly88ItS-4" edge="1">
          <mxGeometry relative="1" as="geometry">
            <mxPoint x="263.0078163136393" y="380" as="sourcePoint" />
            <mxPoint x="349.8107910156248" y="490.18034262995354" as="targetPoint" />
          </mxGeometry>
        </mxCell>
        <mxCell id="IPl7vRSe11yOwly88ItS-6" value="&lt;span style=&quot;color: rgb(0, 128, 0); font-size: 12px;&quot;&gt;wd:id&lt;/span&gt;" style="text;html=1;align=right;verticalAlign=middle;resizable=0;points=[];labelBackgroundColor=default;fontSize=12;fontFamily=Helvetica;" parent="IPl7vRSe11yOwly88ItS-5" vertex="1" connectable="0">
          <mxGeometry x="-0.0896" y="3" relative="1" as="geometry">
            <mxPoint x="75" y="136" as="offset" />
          </mxGeometry>
        </mxCell>
        <mxCell id="IPl7vRSe11yOwly88ItS-7" value="xsd:String" style="graphMlID=n6;shape=parallelogram;fillColor=#ccffcc;strokeColor=#000000;strokeWidth=1.0" parent="1" vertex="1">
          <mxGeometry x="720" y="160" width="126.09" height="40" as="geometry" />
        </mxCell>
        <mxCell id="xd9QlA5LkdrfGByVIvqK-1" value="xsd:anyURI" style="graphMlID=n6;shape=parallelogram;fillColor=#ccffcc;strokeColor=#000000;strokeWidth=1.0" parent="1" vertex="1">
          <mxGeometry x="720" y="440" width="126.0949682107173" height="43" as="geometry" />
        </mxCell>
        <mxCell id="HXwgE8Hu7ghbENhlWL-Q-1" value="" style="graphMlID=e2;rounded=0;endArrow=block;strokeColor=#008000;strokeWidth=1.0;startArrow=oval;startFill=0;endFill=0;edgeStyle=entityRelationEdgeStyle;" parent="1" source="uXc9PLOgi6FMu5m9OY-l-2" target="uXc9PLOgi6FMu5m9OY-l-11" edge="1">
          <mxGeometry relative="1" as="geometry">
            <mxPoint x="450.0078163136393" y="330" as="sourcePoint" />
            <mxPoint x="450.0390815681965" y="410" as="targetPoint" />
          </mxGeometry>
        </mxCell>
        <mxCell id="HXwgE8Hu7ghbENhlWL-Q-2" value="&lt;span style=&quot;color: rgb(0, 128, 0); font-size: 12px; background-color: rgb(248, 249, 250);&quot;&gt;prism:issn&lt;br&gt;&lt;/span&gt;" style="text;html=1;align=right;verticalAlign=middle;resizable=0;points=[];labelBackgroundColor=#ffffff;fontSize=12;fontFamily=Helvetica;" parent="HXwgE8Hu7ghbENhlWL-Q-1" vertex="1" connectable="0">
          <mxGeometry x="-0.0896" y="3" relative="1" as="geometry">
            <mxPoint x="81" y="-110" as="offset" />
          </mxGeometry>
        </mxCell>
        <mxCell id="sisfyAjMkpbVOuqUAnno-1" value="xsd:String" style="graphMlID=n6;shape=parallelogram;fillColor=#ccffcc;strokeColor=#000000;strokeWidth=1.0" parent="1" vertex="1">
          <mxGeometry x="720" y="600" width="126.0949682107173" height="43" as="geometry" />
        </mxCell>
        <mxCell id="sisfyAjMkpbVOuqUAnno-2" value="" style="graphMlID=e2;rounded=0;endArrow=block;strokeColor=#008000;strokeWidth=1.0;startArrow=oval;startFill=0;endFill=0;edgeStyle=entityRelationEdgeStyle;" parent="1" source="uXc9PLOgi6FMu5m9OY-l-2" target="sisfyAjMkpbVOuqUAnno-1" edge="1">
          <mxGeometry relative="1" as="geometry">
            <mxPoint x="530" y="310" as="sourcePoint" />
            <mxPoint x="359.8107910156248" y="500.18034262995354" as="targetPoint" />
          </mxGeometry>
        </mxCell>
        <mxCell id="sisfyAjMkpbVOuqUAnno-3" value="&lt;span style=&quot;color: rgb(0, 128, 0); font-size: 12px;&quot;&gt;scpo:hasFatcatId&lt;/span&gt;" style="text;html=1;align=right;verticalAlign=middle;resizable=0;points=[];labelBackgroundColor=default;fontSize=12;fontFamily=Helvetica;" parent="sisfyAjMkpbVOuqUAnno-2" vertex="1" connectable="0">
          <mxGeometry x="-0.0896" y="3" relative="1" as="geometry">
            <mxPoint x="75" y="179" as="offset" />
          </mxGeometry>
        </mxCell>
        <mxCell id="IPl7vRSe11yOwly88ItS-8" value="" style="graphMlID=e2;rounded=0;endArrow=block;strokeColor=#008000;strokeWidth=1.0;startArrow=oval;startFill=0;endFill=0;edgeStyle=entityRelationEdgeStyle;" parent="1" source="uXc9PLOgi6FMu5m9OY-l-2" target="IPl7vRSe11yOwly88ItS-7" edge="1">
          <mxGeometry relative="1" as="geometry">
            <mxPoint x="353.0078163136393" y="443" as="sourcePoint" />
            <mxPoint x="439.8107910156248" y="553.1803426299535" as="targetPoint" />
          </mxGeometry>
        </mxCell>
        <mxCell id="IPl7vRSe11yOwly88ItS-9" value="&lt;span style=&quot;color: rgb(0, 128, 0); font-size: 12px; background-color: rgb(248, 249, 250);&quot;&gt;prism:eIssn&lt;/span&gt;" style="text;html=1;align=right;verticalAlign=middle;resizable=0;points=[];labelBackgroundColor=#ffffff;fontSize=12;fontFamily=Helvetica;" parent="IPl7vRSe11yOwly88ItS-8" vertex="1" connectable="0">
          <mxGeometry x="-0.0896" y="3" relative="1" as="geometry">
            <mxPoint x="80" y="-65" as="offset" />
          </mxGeometry>
        </mxCell>
        <mxCell id="xd9QlA5LkdrfGByVIvqK-2" value="" style="graphMlID=e2;rounded=0;endArrow=block;strokeColor=#008000;strokeWidth=1.0;startArrow=oval;startFill=0;endFill=0;edgeStyle=entityRelationEdgeStyle;" parent="1" source="uXc9PLOgi6FMu5m9OY-l-2" target="xd9QlA5LkdrfGByVIvqK-1" edge="1">
          <mxGeometry relative="1" as="geometry">
            <mxPoint x="533.0078163136393" y="480" as="sourcePoint" />
            <mxPoint x="619.8107910156248" y="590.1803426299535" as="targetPoint" />
          </mxGeometry>
        </mxCell>
        <mxCell id="xd9QlA5LkdrfGByVIvqK-3" value="&lt;span style=&quot;color: rgb(0, 128, 0); font-size: 12px; background-color: rgb(248, 249, 250);&quot;&gt;scpo:hasSherpaRomeoId&lt;/span&gt;" style="text;html=1;align=right;verticalAlign=middle;resizable=0;points=[];labelBackgroundColor=#ffffff;fontSize=12;fontFamily=Helvetica;" parent="xd9QlA5LkdrfGByVIvqK-2" vertex="1" connectable="0">
          <mxGeometry x="-0.0896" y="3" relative="1" as="geometry">
            <mxPoint x="76" y="92" as="offset" />
          </mxGeometry>
        </mxCell>
        <mxCell id="HXwgE8Hu7ghbENhlWL-Q-3" value="" style="graphMlID=e2;rounded=0;endArrow=block;strokeColor=#008000;strokeWidth=1.0;startArrow=oval;startFill=0;endFill=0;edgeStyle=entityRelationEdgeStyle;" parent="1" source="uXc9PLOgi6FMu5m9OY-l-2" target="usg2qc-wE2mQrx90kM3m-1" edge="1">
          <mxGeometry relative="1" as="geometry">
            <mxPoint x="460.0078163136393" y="340" as="sourcePoint" />
            <mxPoint x="460.0390815681965" y="420" as="targetPoint" />
          </mxGeometry>
        </mxCell>
        <mxCell id="HXwgE8Hu7ghbENhlWL-Q-4" value="&lt;span style=&quot;color: rgb(0, 128, 0); font-size: 12px; background-color: rgb(248, 249, 250);&quot;&gt;scpo:hasOpenalexId&lt;br&gt;&lt;/span&gt;" style="text;html=1;align=right;verticalAlign=middle;resizable=0;points=[];labelBackgroundColor=#ffffff;fontSize=12;fontFamily=Helvetica;" parent="HXwgE8Hu7ghbENhlWL-Q-3" vertex="1" connectable="0">
          <mxGeometry x="-0.0896" y="3" relative="1" as="geometry">
            <mxPoint x="77" y="48" as="offset" />
          </mxGeometry>
        </mxCell>
      </root>
    </mxGraphModel>
  </diagram>
  <diagram id="3MuNYW0R61McRn4A7BKe" name="Evaluation">
    <mxGraphModel dx="1834" dy="876" grid="1" gridSize="10" guides="1" tooltips="1" connect="1" arrows="1" fold="1" page="0" pageScale="1" pageWidth="827" pageHeight="1169" background="none" math="0" shadow="0">
      <root>
        <mxCell id="0" />
        <mxCell id="1" parent="0" />
        <mxCell id="jqNX5RoaksAqMUhYsRNB-9" value="scpo:EvaluationPolicy" style="graphMlID=n4;shape=rect;rounded=1;arcsize=30;fillColor=#ffff00;strokeColor=#000000;strokeWidth=1.0" parent="1" vertex="1">
          <mxGeometry x="200" y="280" width="120" height="40" as="geometry" />
        </mxCell>
        <mxCell id="jqNX5RoaksAqMUhYsRNB-7" value="" style="graphMlID=e0;rounded=0;endArrow=block;strokeColor=#000080;strokeWidth=1.0;startArrow=oval;startFill=1;endFill=1;fontFamily=Helvetica;fontSize=11;entryX=0;entryY=0.75;entryDx=0;entryDy=0;exitX=1;exitY=0.75;exitDx=0;exitDy=0;" parent="1" source="jqNX5RoaksAqMUhYsRNB-9" target="jqNX5RoaksAqMUhYsRNB-21" edge="1">
          <mxGeometry relative="1" as="geometry">
            <mxPoint x="290" y="310" as="sourcePoint" />
            <mxPoint x="530" y="620" as="targetPoint" />
          </mxGeometry>
        </mxCell>
        <mxCell id="jqNX5RoaksAqMUhYsRNB-8" value="&lt;span style=&quot;color: rgb(0, 0, 128); font-size: 12px; background-color: rgb(248, 249, 250);&quot;&gt;scpo:hasInitiator&lt;/span&gt;" style="text;html=1;align=center;verticalAlign=middle;resizable=0;points=[];labelBackgroundColor=#ffffff;fontSize=12;fontFamily=Helvetica;" parent="jqNX5RoaksAqMUhYsRNB-7" vertex="1" connectable="0">
          <mxGeometry relative="1" as="geometry">
            <mxPoint as="offset" />
          </mxGeometry>
        </mxCell>
        <mxCell id="jqNX5RoaksAqMUhYsRNB-5" value="" style="graphMlID=e0;rounded=0;endArrow=block;strokeColor=#000080;strokeWidth=1.0;startArrow=oval;startFill=1;endFill=1;fontFamily=Helvetica;fontSize=11;entryX=0;entryY=0.25;entryDx=0;entryDy=0;exitX=1;exitY=0.25;exitDx=0;exitDy=0;" parent="1" source="jqNX5RoaksAqMUhYsRNB-9" target="jqNX5RoaksAqMUhYsRNB-21" edge="1">
          <mxGeometry relative="1" as="geometry">
            <mxPoint x="340" y="690" as="sourcePoint" />
            <mxPoint x="260" y="550" as="targetPoint" />
          </mxGeometry>
        </mxCell>
        <mxCell id="jqNX5RoaksAqMUhYsRNB-6" value="&lt;span style=&quot;color: rgb(0, 0, 128); font-size: 12px; background-color: rgb(248, 249, 250);&quot;&gt;scpo:involves&lt;/span&gt;" style="text;html=1;align=center;verticalAlign=middle;resizable=0;points=[];labelBackgroundColor=#ffffff;fontSize=12;fontFamily=Helvetica;" parent="jqNX5RoaksAqMUhYsRNB-5" vertex="1" connectable="0">
          <mxGeometry relative="1" as="geometry">
            <mxPoint as="offset" />
          </mxGeometry>
        </mxCell>
        <mxCell id="jqNX5RoaksAqMUhYsRNB-10" value="scpo:Platform" style="graphMlID=n4;shape=rect;rounded=1;arcsize=30;fillColor=#ffff00;strokeColor=#000000;strokeWidth=1.0;fontFamily=Helvetica;fontSize=12;" parent="1" vertex="1">
          <mxGeometry x="-40" y="280" width="120" height="40" as="geometry" />
        </mxCell>
        <mxCell id="jqNX5RoaksAqMUhYsRNB-11" value="" style="graphMlID=e0;rounded=0;endArrow=block;strokeColor=#000080;strokeWidth=1.0;startArrow=oval;startFill=1;endFill=1;fontFamily=Helvetica;elbow=vertical;fontSize=12;" parent="1" source="jqNX5RoaksAqMUhYsRNB-10" target="jqNX5RoaksAqMUhYsRNB-9" edge="1">
          <mxGeometry relative="1" as="geometry">
            <mxPoint x="-120" y="190" as="sourcePoint" />
            <mxPoint x="120" y="300" as="targetPoint" />
          </mxGeometry>
        </mxCell>
        <mxCell id="jqNX5RoaksAqMUhYsRNB-12" value="scpo:hasPolicy" style="edgeLabel;html=1;align=center;verticalAlign=middle;resizable=0;points=[];fontSize=12;fontFamily=Helvetica;fontColor=#000080;" parent="jqNX5RoaksAqMUhYsRNB-11" vertex="1" connectable="0">
          <mxGeometry x="-0.1053" y="1" relative="1" as="geometry">
            <mxPoint as="offset" />
          </mxGeometry>
        </mxCell>
        <mxCell id="jqNX5RoaksAqMUhYsRNB-21" value="pro:PublishingRole" style="graphMlID=n4;shape=rect;rounded=1;arcsize=30;fillColor=#ffff00;strokeColor=#000000;strokeWidth=1.0" parent="1" vertex="1">
          <mxGeometry x="520" y="280" width="120" height="40" as="geometry" />
        </mxCell>
        <mxCell id="jqNX5RoaksAqMUhYsRNB-25" value="" style="graphMlID=e0;rounded=0;endArrow=block;strokeColor=#000080;strokeWidth=1.0;startArrow=oval;startFill=1;endFill=1;fontFamily=Helvetica;elbow=vertical;fontSize=12;edgeStyle=orthogonalEdgeStyle;exitX=0.25;exitY=0;exitDx=0;exitDy=0;entryX=0.75;entryY=0;entryDx=0;entryDy=0;curved=1;" parent="1" source="jqNX5RoaksAqMUhYsRNB-21" target="jqNX5RoaksAqMUhYsRNB-21" edge="1">
          <mxGeometry relative="1" as="geometry">
            <mxPoint x="680" y="159.5" as="sourcePoint" />
            <mxPoint x="643.0500000000002" y="550" as="targetPoint" />
            <Array as="points">
              <mxPoint x="580" y="100" />
            </Array>
          </mxGeometry>
        </mxCell>
        <mxCell id="jqNX5RoaksAqMUhYsRNB-26" value="scpo:anonymousTo" style="edgeLabel;html=1;align=center;verticalAlign=middle;resizable=0;points=[];fontSize=12;fontFamily=Helvetica;fontColor=#000080;" parent="jqNX5RoaksAqMUhYsRNB-25" vertex="1" connectable="0">
          <mxGeometry x="-0.1053" y="1" relative="1" as="geometry">
            <mxPoint x="4" y="71" as="offset" />
          </mxGeometry>
        </mxCell>
        <mxCell id="jqNX5RoaksAqMUhYsRNB-34" value="scpo:Work" style="graphMlID=n4;shape=rect;rounded=1;arcsize=30;fillColor=#FFFF00;strokeColor=#000000;strokeWidth=1.0" parent="1" vertex="1">
          <mxGeometry x="520" y="480" width="120" height="40" as="geometry" />
        </mxCell>
        <mxCell id="jqNX5RoaksAqMUhYsRNB-38" value="" style="graphMlID=e0;rounded=0;endArrow=block;strokeColor=#000080;strokeWidth=1.0;startArrow=oval;startFill=1;endFill=1;fontFamily=Helvetica;fontSize=11;exitX=0.5;exitY=1;exitDx=0;exitDy=0;entryX=0;entryY=0;entryDx=0;entryDy=0;" parent="1" source="jqNX5RoaksAqMUhYsRNB-9" target="jqNX5RoaksAqMUhYsRNB-34" edge="1">
          <mxGeometry relative="1" as="geometry">
            <mxPoint x="290" y="310" as="sourcePoint" />
            <mxPoint x="530" y="620" as="targetPoint" />
          </mxGeometry>
        </mxCell>
        <mxCell id="jqNX5RoaksAqMUhYsRNB-39" value="&lt;span style=&quot;color: rgb(0, 0, 128); font-size: 12px; background-color: rgb(248, 249, 250);&quot;&gt;scpo:covers&lt;/span&gt;" style="text;html=1;align=center;verticalAlign=middle;resizable=0;points=[];labelBackgroundColor=#ffffff;fontSize=12;fontFamily=Helvetica;" parent="jqNX5RoaksAqMUhYsRNB-38" vertex="1" connectable="0">
          <mxGeometry relative="1" as="geometry">
            <mxPoint y="-5" as="offset" />
          </mxGeometry>
        </mxCell>
        <mxCell id="dO-Xu6t4-0YCVlXrp8EN-14" value="" style="graphMlID=e0;rounded=0;endArrow=block;strokeColor=#000080;strokeWidth=1.0;startArrow=oval;startFill=1;endFill=1;fontFamily=Helvetica;elbow=vertical;fontSize=12;exitX=0.25;exitY=0;exitDx=0;exitDy=0;entryX=0.75;entryY=0;entryDx=0;entryDy=0;edgeStyle=orthogonalEdgeStyle;curved=1;" parent="1" source="jqNX5RoaksAqMUhYsRNB-21" target="jqNX5RoaksAqMUhYsRNB-21" edge="1">
          <mxGeometry relative="1" as="geometry">
            <mxPoint x="540" y="290" as="sourcePoint" />
            <mxPoint x="640" y="290" as="targetPoint" />
            <Array as="points">
              <mxPoint x="580" y="190" />
            </Array>
          </mxGeometry>
        </mxCell>
        <mxCell id="dO-Xu6t4-0YCVlXrp8EN-15" value="scpo:interactsWith" style="edgeLabel;html=1;align=center;verticalAlign=middle;resizable=0;points=[];fontSize=12;fontFamily=Helvetica;fontColor=#000080;" parent="dO-Xu6t4-0YCVlXrp8EN-14" vertex="1" connectable="0">
          <mxGeometry x="-0.1053" y="1" relative="1" as="geometry">
            <mxPoint x="4" y="31" as="offset" />
          </mxGeometry>
        </mxCell>
        <mxCell id="reZ1YduYFhE9TnTQI12O-1" value="scpo:Public-&#xa;Accessibility" style="graphMlID=n4;shape=rect;rounded=1;arcsize=30;fillColor=#ffff00;strokeColor=#000000;strokeWidth=1.0" parent="1" vertex="1">
          <mxGeometry x="880" y="280" width="120" height="40" as="geometry" />
        </mxCell>
        <mxCell id="reZ1YduYFhE9TnTQI12O-13" value="" style="graphMlID=e0;rounded=0;endArrow=block;strokeColor=#000080;strokeWidth=1.0;startArrow=oval;startFill=1;endFill=1;fontFamily=Helvetica;fontSize=11;exitX=1;exitY=0.75;exitDx=0;exitDy=0;entryX=0;entryY=0.75;entryDx=0;entryDy=0;" parent="1" source="jqNX5RoaksAqMUhYsRNB-21" target="reZ1YduYFhE9TnTQI12O-1" edge="1">
          <mxGeometry relative="1" as="geometry">
            <mxPoint x="910" y="120" as="sourcePoint" />
            <mxPoint x="1195" y="340" as="targetPoint" />
          </mxGeometry>
        </mxCell>
        <mxCell id="reZ1YduYFhE9TnTQI12O-14" value="&lt;span style=&quot;font-size: 12px; background-color: rgb(248, 249, 250);&quot;&gt;scpo:identityPubliclyAccessible&lt;/span&gt;" style="text;html=1;align=right;verticalAlign=middle;resizable=0;points=[];labelBackgroundColor=#ffffff;fontSize=12;fontFamily=Helvetica;fontColor=#000080;" parent="reZ1YduYFhE9TnTQI12O-13" vertex="1" connectable="0">
          <mxGeometry relative="1" as="geometry">
            <mxPoint x="90" as="offset" />
          </mxGeometry>
        </mxCell>
        <mxCell id="reZ1YduYFhE9TnTQI12O-15" value="" style="graphMlID=e0;rounded=0;endArrow=block;strokeColor=#000080;strokeWidth=1.0;startArrow=oval;startFill=1;endFill=1;fontFamily=Helvetica;fontSize=11;exitX=1;exitY=0;exitDx=0;exitDy=0;entryX=0;entryY=1;entryDx=0;entryDy=0;" parent="1" source="jqNX5RoaksAqMUhYsRNB-34" target="reZ1YduYFhE9TnTQI12O-1" edge="1">
          <mxGeometry relative="1" as="geometry">
            <mxPoint x="940" y="30" as="sourcePoint" />
            <mxPoint x="1225" y="250" as="targetPoint" />
          </mxGeometry>
        </mxCell>
        <mxCell id="reZ1YduYFhE9TnTQI12O-16" value="&lt;span style=&quot;color: rgb(0, 0, 128); font-size: 12px; background-color: rgb(248, 249, 250);&quot;&gt;scpo:workPubliclyAccessible&lt;/span&gt;" style="text;html=1;align=center;verticalAlign=middle;resizable=0;points=[];labelBackgroundColor=#ffffff;fontSize=12;fontFamily=Helvetica;" parent="reZ1YduYFhE9TnTQI12O-15" vertex="1" connectable="0">
          <mxGeometry relative="1" as="geometry">
            <mxPoint as="offset" />
          </mxGeometry>
        </mxCell>
        <mxCell id="reZ1YduYFhE9TnTQI12O-17" value="" style="graphMlID=e0;rounded=0;endArrow=block;strokeColor=#000080;strokeWidth=1.0;startArrow=oval;startFill=1;endFill=1;fontFamily=Helvetica;elbow=vertical;fontSize=12;entryX=1;entryY=0.25;entryDx=0;entryDy=0;exitX=0;exitY=0.25;exitDx=0;exitDy=0;" parent="1" source="reZ1YduYFhE9TnTQI12O-1" target="jqNX5RoaksAqMUhYsRNB-21" edge="1">
          <mxGeometry relative="1" as="geometry">
            <mxPoint x="1110" y="530" as="sourcePoint" />
            <mxPoint x="1010" y="450" as="targetPoint" />
          </mxGeometry>
        </mxCell>
        <mxCell id="reZ1YduYFhE9TnTQI12O-19" value="scpo:optInBy" style="edgeLabel;html=1;align=center;verticalAlign=middle;resizable=0;points=[];fontSize=12;fontFamily=Helvetica;fontColor=#000080;" parent="reZ1YduYFhE9TnTQI12O-17" vertex="1" connectable="0">
          <mxGeometry x="-0.2203" y="-2" relative="1" as="geometry">
            <mxPoint x="-26" y="2" as="offset" />
          </mxGeometry>
        </mxCell>
        <mxCell id="usgndKLTBn3LErDOcmCO-2" value="Individuals" style="graphMlID=n2;shape=swimlane;startSize=20;rounded=1;arcSize=5;strokeColor=#000000;strokeWidth=1;dashed=1;dashPattern=1 3;align=right;fillColor=#FF99CC;labelBackgroundColor=none;swimlaneFillColor=#FCFCFC;fontStyle=2" parent="1" vertex="1">
          <mxGeometry x="475.94" y="560" width="208.12" height="100" as="geometry">
            <mxRectangle x="373.75" y="600" width="416.25" height="30" as="alternateBounds" />
          </mxGeometry>
        </mxCell>
        <mxCell id="usgndKLTBn3LErDOcmCO-3" value="scpo:ReviewReport&lt;br style=&quot;font-size: 12px;&quot;&gt;scpo:ReviewSummary&lt;br style=&quot;font-size: 12px;&quot;&gt;scpo:SubmittedManuscript&lt;br style=&quot;font-size: 12px;&quot;&gt;&lt;div style=&quot;font-size: 12px;&quot;&gt;&lt;span style=&quot;background-color: initial; font-size: 12px;&quot;&gt;scpo:AuthorEditorCommunication&lt;/span&gt;&lt;/div&gt;" style="text;html=1;align=left;verticalAlign=middle;resizable=0;points=[];autosize=1;strokeColor=none;fillColor=none;fontFamily=Helvetica;fontSize=12;fontStyle=2" parent="usgndKLTBn3LErDOcmCO-2" vertex="1">
          <mxGeometry x="13.119999999999997" y="25" width="200" height="70" as="geometry" />
        </mxCell>
        <mxCell id="usgndKLTBn3LErDOcmCO-5" value="" style="graphMlID=e5;rounded=0;endArrow=block;strokeColor=#000080;dashed=1;dashPattern=1 1;strokeWidth=1.0;startArrow=oval;startFill=1;endFill=1;fontFamily=Helvetica;fontSize=12;" parent="1" source="usgndKLTBn3LErDOcmCO-2" target="jqNX5RoaksAqMUhYsRNB-34" edge="1">
          <mxGeometry relative="1" as="geometry">
            <mxPoint x="424.06" y="1250" as="sourcePoint" />
            <mxPoint x="370.06" y="1090" as="targetPoint" />
          </mxGeometry>
        </mxCell>
        <mxCell id="usgndKLTBn3LErDOcmCO-6" value="&lt;span style=&quot;color: rgb(0, 0, 128); font-size: 12px; background-color: rgb(248, 249, 250);&quot;&gt;rdf:Type&lt;/span&gt;" style="text;html=1;align=center;verticalAlign=middle;resizable=0;points=[];labelBackgroundColor=#ffffff;fontSize=12;fontFamily=Helvetica;" parent="usgndKLTBn3LErDOcmCO-5" vertex="1" connectable="0">
          <mxGeometry x="-0.1377" y="-3" relative="1" as="geometry">
            <mxPoint x="-3" as="offset" />
          </mxGeometry>
        </mxCell>
        <mxCell id="usgndKLTBn3LErDOcmCO-7" value="Individuals" style="graphMlID=n2;shape=swimlane;startSize=20;rounded=1;arcSize=5;strokeColor=#000000;strokeWidth=1.0;dashed=1;dashPattern=1 3;align=right;fillColor=#FF99CC;labelBackgroundColor=none;swimlaneFillColor=#FCFCFC;fontStyle=2" parent="1" vertex="1">
          <mxGeometry x="510" y="360" width="140" height="80" as="geometry">
            <mxRectangle x="510" y="360" width="140" height="30" as="alternateBounds" />
          </mxGeometry>
        </mxCell>
        <mxCell id="usgndKLTBn3LErDOcmCO-8" value="pro:Author&lt;br&gt;pro:peer-reviewer&lt;br&gt;pro:Editor" style="text;html=1;align=left;verticalAlign=middle;resizable=0;points=[];autosize=1;strokeColor=none;fillColor=none;fontFamily=Helvetica;fontSize=12;fontStyle=2" parent="usgndKLTBn3LErDOcmCO-7" vertex="1">
          <mxGeometry x="10" y="20" width="120" height="60" as="geometry" />
        </mxCell>
        <mxCell id="usgndKLTBn3LErDOcmCO-10" value="" style="graphMlID=e5;rounded=0;endArrow=block;strokeColor=#000080;dashed=1;dashPattern=1 1;strokeWidth=1.0;startArrow=oval;startFill=1;endFill=1;fontFamily=Helvetica;fontSize=12;" parent="1" source="usgndKLTBn3LErDOcmCO-7" target="jqNX5RoaksAqMUhYsRNB-21" edge="1">
          <mxGeometry relative="1" as="geometry">
            <mxPoint x="492.5" y="600" as="sourcePoint" />
            <mxPoint x="582.5" y="310" as="targetPoint" />
          </mxGeometry>
        </mxCell>
        <mxCell id="usgndKLTBn3LErDOcmCO-11" value="&lt;span style=&quot;color: rgb(0, 0, 128); font-size: 12px; background-color: rgb(248, 249, 250);&quot;&gt;rdf:Type&lt;/span&gt;" style="text;html=1;align=center;verticalAlign=middle;resizable=0;points=[];labelBackgroundColor=#ffffff;fontSize=12;fontFamily=Helvetica;" parent="usgndKLTBn3LErDOcmCO-10" vertex="1" connectable="0">
          <mxGeometry x="-0.1377" y="-3" relative="1" as="geometry">
            <mxPoint x="-3" as="offset" />
          </mxGeometry>
        </mxCell>
        <mxCell id="M-l-uhIK45szZ5ybsqer-5" value="scpo:postPublication-&#xa;Commenting" style="graphMlID=n4;shape=rect;rounded=1;arcsize=30;fillColor=#ffff00;strokeColor=#000000;strokeWidth=1.0" parent="1" vertex="1">
          <mxGeometry x="200" y="480" width="120" height="40" as="geometry" />
        </mxCell>
        <mxCell id="M-l-uhIK45szZ5ybsqer-6" value="Individuals" style="graphMlID=n2;shape=swimlane;startSize=20;rounded=1;arcSize=5;strokeColor=#000000;strokeWidth=1.0;dashed=1;dashPattern=1 3;align=right;fillColor=#FF99CC;labelBackgroundColor=none;swimlaneFillColor=#FCFCFC;fontStyle=2" parent="1" vertex="1">
          <mxGeometry x="120" y="560" width="280" height="80" as="geometry">
            <mxRectangle x="510" y="80" width="140" height="30" as="alternateBounds" />
          </mxGeometry>
        </mxCell>
        <mxCell id="M-l-uhIK45szZ5ybsqer-7" value="scpo:postPublicationCommentingOpen&lt;br&gt;scpo:postPublicationCommentingOnInvitation&lt;br&gt;scpo:postPublicationCommentingClosed" style="text;html=1;align=left;verticalAlign=middle;resizable=0;points=[];autosize=1;strokeColor=none;fillColor=none;fontFamily=Helvetica;fontSize=12;fontStyle=2" parent="M-l-uhIK45szZ5ybsqer-6" vertex="1">
          <mxGeometry x="10" y="20" width="270" height="60" as="geometry" />
        </mxCell>
        <mxCell id="M-l-uhIK45szZ5ybsqer-8" value="" style="graphMlID=e5;rounded=0;endArrow=block;strokeColor=#000080;dashed=1;dashPattern=1 1;strokeWidth=1.0;startArrow=oval;startFill=1;endFill=1;fontFamily=Helvetica;fontSize=12;" parent="1" source="M-l-uhIK45szZ5ybsqer-6" target="M-l-uhIK45szZ5ybsqer-5" edge="1">
          <mxGeometry relative="1" as="geometry">
            <mxPoint x="-257.5" y="340" as="sourcePoint" />
            <mxPoint x="-167.5" y="50" as="targetPoint" />
          </mxGeometry>
        </mxCell>
        <mxCell id="M-l-uhIK45szZ5ybsqer-9" value="&lt;span style=&quot;color: rgb(0, 0, 128); font-size: 12px; background-color: rgb(248, 249, 250);&quot;&gt;rdf:Type&lt;/span&gt;" style="text;html=1;align=center;verticalAlign=middle;resizable=0;points=[];labelBackgroundColor=#ffffff;fontSize=12;fontFamily=Helvetica;" parent="M-l-uhIK45szZ5ybsqer-8" vertex="1" connectable="0">
          <mxGeometry x="-0.1377" y="-3" relative="1" as="geometry">
            <mxPoint x="-3" as="offset" />
          </mxGeometry>
        </mxCell>
        <mxCell id="2LeMIIpLTIK_1rMqLHZe-4" value="Individuals" style="graphMlID=n2;shape=swimlane;startSize=20;rounded=1;arcSize=5;strokeColor=#000000;strokeWidth=1.0;dashed=1;dashPattern=1 3;align=right;fillColor=#FF99CC;labelBackgroundColor=none;swimlaneFillColor=#FCFCFC;fontStyle=2" parent="1" vertex="1">
          <mxGeometry x="870" y="360" width="140" height="80" as="geometry">
            <mxRectangle x="510" y="360" width="140" height="30" as="alternateBounds" />
          </mxGeometry>
        </mxCell>
        <mxCell id="2LeMIIpLTIK_1rMqLHZe-5" value="scpo:Accessible&lt;br&gt;scpo:NotAccessible&lt;br&gt;scpo:OptIn" style="text;html=1;align=left;verticalAlign=middle;resizable=0;points=[];autosize=1;strokeColor=none;fillColor=none;fontFamily=Helvetica;fontSize=12;fontStyle=2" parent="2LeMIIpLTIK_1rMqLHZe-4" vertex="1">
          <mxGeometry x="10" y="20" width="120" height="60" as="geometry" />
        </mxCell>
        <mxCell id="2LeMIIpLTIK_1rMqLHZe-6" value="" style="graphMlID=e5;rounded=0;endArrow=block;strokeColor=#000080;dashed=1;dashPattern=1 1;strokeWidth=1.0;startArrow=oval;startFill=1;endFill=1;fontFamily=Helvetica;fontSize=12;" parent="1" source="2LeMIIpLTIK_1rMqLHZe-4" target="reZ1YduYFhE9TnTQI12O-1" edge="1">
          <mxGeometry relative="1" as="geometry">
            <mxPoint x="832.5" y="740" as="sourcePoint" />
            <mxPoint x="920" y="460" as="targetPoint" />
          </mxGeometry>
        </mxCell>
        <mxCell id="2LeMIIpLTIK_1rMqLHZe-7" value="&lt;span style=&quot;color: rgb(0, 0, 128); font-size: 12px; background-color: rgb(248, 249, 250);&quot;&gt;rdf:Type&lt;/span&gt;" style="text;html=1;align=center;verticalAlign=middle;resizable=0;points=[];labelBackgroundColor=#ffffff;fontSize=12;fontFamily=Helvetica;" parent="2LeMIIpLTIK_1rMqLHZe-6" vertex="1" connectable="0">
          <mxGeometry x="-0.1377" y="-3" relative="1" as="geometry">
            <mxPoint x="-3" as="offset" />
          </mxGeometry>
        </mxCell>
        <mxCell id="Z_b4CUjZ545mVyU-22fh-1" value="" style="graphMlID=e0;rounded=0;endArrow=block;strokeColor=#000080;strokeWidth=1.0;startArrow=oval;startFill=1;endFill=1;fontFamily=Helvetica;fontSize=11;" edge="1" parent="1" source="jqNX5RoaksAqMUhYsRNB-9" target="M-l-uhIK45szZ5ybsqer-5">
          <mxGeometry relative="1" as="geometry">
            <mxPoint x="270" y="330" as="sourcePoint" />
            <mxPoint x="530" y="490" as="targetPoint" />
          </mxGeometry>
        </mxCell>
        <mxCell id="Z_b4CUjZ545mVyU-22fh-2" value="&lt;span style=&quot;color: rgb(0, 0, 128); font-size: 12px; background-color: rgb(248, 249, 250);&quot;&gt;scpo:covers&lt;/span&gt;" style="text;html=1;align=center;verticalAlign=middle;resizable=0;points=[];labelBackgroundColor=#ffffff;fontSize=12;fontFamily=Helvetica;" vertex="1" connectable="0" parent="Z_b4CUjZ545mVyU-22fh-1">
          <mxGeometry relative="1" as="geometry">
            <mxPoint y="-5" as="offset" />
          </mxGeometry>
        </mxCell>
      </root>
    </mxGraphModel>
  </diagram>
  <diagram id="-gSzTBzJqk30YuJSKaxn" name="Publication">
    <mxGraphModel dx="1834" dy="876" grid="1" gridSize="10" guides="1" tooltips="1" connect="1" arrows="1" fold="1" page="0" pageScale="1" pageWidth="827" pageHeight="1169" background="none" math="0" shadow="0">
      <root>
        <mxCell id="0" />
        <mxCell id="1" parent="0" />
        <mxCell id="SITBBsaJ2imxVyLXnmys-7" value="scpo:ArticleProcessing-&#xa;Charge" style="graphMlID=n4;shape=rect;rounded=1;arcsize=30;fillColor=#ffff00;strokeColor=#000000;strokeWidth=1.0;fontFamily=Helvetica;" parent="1" vertex="1">
          <mxGeometry x="520" y="520" width="120" height="40" as="geometry" />
        </mxCell>
        <mxCell id="zCZ27iV-oBh6T6M-h3W2-1" value="scpo:Publication&#xa;Policy" style="graphMlID=n4;shape=rect;rounded=1;arcsize=30;fillColor=#ffff00;strokeColor=#000000;strokeWidth=1.0" parent="1" vertex="1">
          <mxGeometry x="160" y="280" width="120" height="40" as="geometry" />
        </mxCell>
        <mxCell id="F6Ml3PVkL0LjxJgqzqXQ-4" value="xsd:duration" style="graphMlID=n6;shape=parallelogram;fillColor=#ccffcc;strokeColor=#000000;strokeWidth=1.0;fontFamily=Helvetica;fontSize=12;perimeterSpacing=0;" parent="1" vertex="1">
          <mxGeometry x="520" y="360" width="120" height="40" as="geometry" />
        </mxCell>
        <mxCell id="SITBBsaJ2imxVyLXnmys-1" value="xsd:string" style="graphMlID=n6;shape=parallelogram;fillColor=#ccffcc;strokeColor=#000000;strokeWidth=1.0;fontFamily=Helvetica;fontSize=12;" parent="1" vertex="1">
          <mxGeometry x="800" y="600" width="120" height="40" as="geometry" />
        </mxCell>
        <mxCell id="SITBBsaJ2imxVyLXnmys-2" value="xsd:double" style="graphMlID=n6;shape=parallelogram;fillColor=#ccffcc;strokeColor=#000000;strokeWidth=1.0" parent="1" vertex="1">
          <mxGeometry x="800" y="520" width="120" height="40" as="geometry" />
        </mxCell>
        <mxCell id="SITBBsaJ2imxVyLXnmys-3" value="" style="graphMlID=e2;endArrow=block;strokeColor=#008000;strokeWidth=1.0;startArrow=oval;startFill=0;endFill=0;fontFamily=Helvetica;fontSize=12;rounded=0;elbow=vertical;edgeStyle=entityRelationEdgeStyle;" parent="1" source="SITBBsaJ2imxVyLXnmys-7" target="SITBBsaJ2imxVyLXnmys-2" edge="1">
          <mxGeometry relative="1" as="geometry">
            <mxPoint x="320.0041666666666" y="680" as="sourcePoint" />
            <mxPoint x="309.50328841145847" y="766" as="targetPoint" />
          </mxGeometry>
        </mxCell>
        <mxCell id="SITBBsaJ2imxVyLXnmys-4" value="&lt;font color=&quot;#008000&quot;&gt;&lt;span style=&quot;background-color: rgb(248, 249, 250);&quot;&gt;schema:price&lt;/span&gt;&lt;/font&gt;" style="text;html=1;align=right;verticalAlign=middle;resizable=0;points=[];labelBackgroundColor=#ffffff;fontFamily=Helvetica;fontSize=12;" parent="SITBBsaJ2imxVyLXnmys-3" vertex="1" connectable="0">
          <mxGeometry x="-0.0896" y="3" relative="1" as="geometry">
            <mxPoint x="57" y="3" as="offset" />
          </mxGeometry>
        </mxCell>
        <mxCell id="elf4omX01vkTzrvvQ6sH-1" value="pso:PublicationStatus" style="graphMlID=n4;shape=rect;rounded=1;arcsize=30;fillColor=#ffff00;strokeColor=#000000;strokeWidth=1.0" parent="1" vertex="1">
          <mxGeometry x="520" y="118" width="120" height="42" as="geometry" />
        </mxCell>
        <mxCell id="nkLEmnQ6oY2hRfIACo7e-1" value="scpo:Platform" style="graphMlID=n4;shape=rect;rounded=1;arcsize=30;fillColor=#ffff00;strokeColor=#000000;strokeWidth=1.0;fontFamily=Helvetica;fontSize=12;" parent="1" vertex="1">
          <mxGeometry x="-80" y="280" width="120" height="40" as="geometry" />
        </mxCell>
        <mxCell id="nkLEmnQ6oY2hRfIACo7e-2" value="" style="graphMlID=e0;rounded=0;endArrow=block;strokeColor=#000080;strokeWidth=1.0;startArrow=oval;startFill=1;endFill=1;fontFamily=Helvetica;elbow=vertical;fontSize=12;" parent="1" source="nkLEmnQ6oY2hRfIACo7e-1" target="zCZ27iV-oBh6T6M-h3W2-1" edge="1">
          <mxGeometry relative="1" as="geometry">
            <mxPoint x="-120" y="190" as="sourcePoint" />
            <mxPoint x="90" y="300" as="targetPoint" />
          </mxGeometry>
        </mxCell>
        <mxCell id="nkLEmnQ6oY2hRfIACo7e-3" value="scpo:hasPolicy" style="edgeLabel;html=1;align=center;verticalAlign=middle;resizable=0;points=[];fontSize=12;fontFamily=Helvetica;fontColor=#000080;" parent="nkLEmnQ6oY2hRfIACo7e-2" vertex="1" connectable="0">
          <mxGeometry x="-0.1053" y="1" relative="1" as="geometry">
            <mxPoint as="offset" />
          </mxGeometry>
        </mxCell>
        <mxCell id="sKD33fxrPFaR2zykV8WR-1" value="pro:PublishingRole" style="graphMlID=n4;shape=rect;rounded=1;arcsize=30;fillColor=#ffff00;strokeColor=#000000;strokeWidth=1.0" parent="1" vertex="1">
          <mxGeometry x="520" y="440" width="120" height="40" as="geometry" />
        </mxCell>
        <mxCell id="aNnslRt-QlcwKnp8ync1-1" value="xsd:anyURI" style="graphMlID=n6;shape=parallelogram;fillColor=#ccffcc;strokeColor=#000000;strokeWidth=1.0;fontFamily=Helvetica;fontSize=12;" parent="1" vertex="1">
          <mxGeometry x="800" y="680" width="120" height="40" as="geometry" />
        </mxCell>
        <mxCell id="aNnslRt-QlcwKnp8ync1-2" value="" style="graphMlID=e2;endArrow=block;strokeColor=#008000;strokeWidth=1.0;startArrow=oval;startFill=0;endFill=0;fontFamily=Helvetica;fontSize=12;rounded=0;elbow=vertical;edgeStyle=entityRelationEdgeStyle;" parent="1" source="SITBBsaJ2imxVyLXnmys-7" target="aNnslRt-QlcwKnp8ync1-1" edge="1">
          <mxGeometry relative="1" as="geometry">
            <mxPoint x="640" y="620" as="sourcePoint" />
            <mxPoint x="325.00068244060185" y="860" as="targetPoint" />
          </mxGeometry>
        </mxCell>
        <mxCell id="aNnslRt-QlcwKnp8ync1-3" value="&lt;font color=&quot;#008000&quot;&gt;&lt;span style=&quot;background-color: rgb(248, 249, 250);&quot;&gt;schema:url&lt;/span&gt;&lt;/font&gt;" style="text;html=1;align=right;verticalAlign=middle;resizable=0;points=[];labelBackgroundColor=#ffffff;fontFamily=Helvetica;fontSize=12;" parent="aNnslRt-QlcwKnp8ync1-2" vertex="1" connectable="0">
          <mxGeometry x="-0.0896" y="3" relative="1" as="geometry">
            <mxPoint x="54" y="91" as="offset" />
          </mxGeometry>
        </mxCell>
        <mxCell id="scJE8448yq_Sk3nl85tk-1" value="" style="graphMlID=e0;rounded=0;endArrow=block;strokeColor=#000080;strokeWidth=1.0;startArrow=oval;startFill=1;endFill=1;fontFamily=Helvetica;elbow=vertical;fontSize=12;edgeStyle=entityRelationEdgeStyle;" parent="1" source="zCZ27iV-oBh6T6M-h3W2-1" target="SITBBsaJ2imxVyLXnmys-7" edge="1">
          <mxGeometry relative="1" as="geometry">
            <mxPoint x="80" y="660" as="sourcePoint" />
            <mxPoint x="200" y="660" as="targetPoint" />
          </mxGeometry>
        </mxCell>
        <mxCell id="scJE8448yq_Sk3nl85tk-2" value="&lt;div&gt;scpo:hasArticleProcessing-&lt;/div&gt;&lt;div&gt;Charge&lt;/div&gt;" style="edgeLabel;html=1;align=right;verticalAlign=middle;resizable=0;points=[];fontSize=12;fontFamily=Helvetica;fontColor=#000080;" parent="scJE8448yq_Sk3nl85tk-1" vertex="1" connectable="0">
          <mxGeometry x="-0.1053" y="1" relative="1" as="geometry">
            <mxPoint x="101" y="136" as="offset" />
          </mxGeometry>
        </mxCell>
        <mxCell id="scJE8448yq_Sk3nl85tk-5" value="" style="graphMlID=e0;rounded=0;endArrow=block;strokeColor=#000080;strokeWidth=1.0;startArrow=oval;startFill=1;endFill=1;fontFamily=Helvetica;elbow=vertical;fontSize=12;edgeStyle=entityRelationEdgeStyle;" parent="1" target="elf4omX01vkTzrvvQ6sH-1" edge="1">
          <mxGeometry relative="1" as="geometry">
            <mxPoint x="280" y="300" as="sourcePoint" />
            <mxPoint x="520" y="460" as="targetPoint" />
          </mxGeometry>
        </mxCell>
        <mxCell id="scJE8448yq_Sk3nl85tk-6" value="scpo:appliesToVersion" style="edgeLabel;html=1;align=right;verticalAlign=middle;resizable=0;points=[];fontSize=12;fontFamily=Helvetica;fontColor=#000080;" parent="scJE8448yq_Sk3nl85tk-5" vertex="1" connectable="0">
          <mxGeometry x="-0.1053" y="1" relative="1" as="geometry">
            <mxPoint x="101" y="-90" as="offset" />
          </mxGeometry>
        </mxCell>
        <mxCell id="scJE8448yq_Sk3nl85tk-9" value="" style="graphMlID=e0;rounded=0;endArrow=block;strokeColor=#000080;strokeWidth=1.0;startArrow=oval;startFill=1;endFill=1;fontFamily=Helvetica;elbow=vertical;fontSize=12;edgeStyle=entityRelationEdgeStyle;" parent="1" source="zCZ27iV-oBh6T6M-h3W2-1" target="sKD33fxrPFaR2zykV8WR-1" edge="1">
          <mxGeometry relative="1" as="geometry">
            <mxPoint x="290" y="310" as="sourcePoint" />
            <mxPoint x="530" y="149" as="targetPoint" />
          </mxGeometry>
        </mxCell>
        <mxCell id="scJE8448yq_Sk3nl85tk-10" value="scpo:hasCopyrightOwner" style="edgeLabel;html=1;align=right;verticalAlign=middle;resizable=0;points=[];fontSize=12;fontFamily=Helvetica;fontColor=#000080;" parent="scJE8448yq_Sk3nl85tk-9" vertex="1" connectable="0">
          <mxGeometry x="-0.1053" y="1" relative="1" as="geometry">
            <mxPoint x="101" y="91" as="offset" />
          </mxGeometry>
        </mxCell>
        <mxCell id="SITBBsaJ2imxVyLXnmys-5" value="" style="graphMlID=e2;endArrow=block;strokeColor=#008000;strokeWidth=1.0;startArrow=oval;startFill=0;endFill=0;fontFamily=Helvetica;fontSize=12;rounded=0;elbow=vertical;edgeStyle=entityRelationEdgeStyle;" parent="1" source="SITBBsaJ2imxVyLXnmys-7" target="SITBBsaJ2imxVyLXnmys-1" edge="1">
          <mxGeometry relative="1" as="geometry">
            <mxPoint x="520.9858333333332" y="680" as="sourcePoint" />
            <mxPoint x="325.00068244060185" y="780" as="targetPoint" />
          </mxGeometry>
        </mxCell>
        <mxCell id="SITBBsaJ2imxVyLXnmys-6" value="&lt;font color=&quot;#008000&quot;&gt;&lt;span style=&quot;background-color: rgb(248, 249, 250);&quot;&gt;schema:priceCurrency&lt;/span&gt;&lt;/font&gt;" style="text;html=1;align=right;verticalAlign=middle;resizable=0;points=[];labelBackgroundColor=#ffffff;fontFamily=Helvetica;fontSize=12;" parent="SITBBsaJ2imxVyLXnmys-5" vertex="1" connectable="0">
          <mxGeometry x="-0.0896" y="3" relative="1" as="geometry">
            <mxPoint x="54" y="47" as="offset" />
          </mxGeometry>
        </mxCell>
        <mxCell id="F6Ml3PVkL0LjxJgqzqXQ-5" value="" style="graphMlID=e2;endArrow=block;strokeColor=#008000;strokeWidth=1.0;startArrow=oval;startFill=0;endFill=0;fontFamily=Helvetica;fontSize=12;rounded=0;elbow=vertical;edgeStyle=entityRelationEdgeStyle;" parent="1" source="zCZ27iV-oBh6T6M-h3W2-1" target="F6Ml3PVkL0LjxJgqzqXQ-4" edge="1">
          <mxGeometry relative="1" as="geometry">
            <mxPoint x="520" y="420" as="sourcePoint" />
            <mxPoint x="949.9999999999998" y="300" as="targetPoint" />
          </mxGeometry>
        </mxCell>
        <mxCell id="F6Ml3PVkL0LjxJgqzqXQ-6" value="&lt;font color=&quot;#008000&quot; style=&quot;font-size: 12px;&quot;&gt;&lt;span style=&quot;background-color: rgb(248, 249, 250); font-size: 12px;&quot;&gt;fabio:hasEmbargoDuration&lt;br&gt;&lt;/span&gt;&lt;/font&gt;" style="text;html=1;align=right;verticalAlign=middle;resizable=0;points=[];labelBackgroundColor=#ffffff;fontFamily=Helvetica;fontSize=12;" parent="F6Ml3PVkL0LjxJgqzqXQ-5" vertex="1" connectable="0">
          <mxGeometry x="-0.0896" y="3" relative="1" as="geometry">
            <mxPoint x="99" y="47" as="offset" />
          </mxGeometry>
        </mxCell>
        <mxCell id="2SXLUs-q6uAzSGPsVwRA-1" value="" style="graphMlID=e2;rounded=0;endArrow=block;strokeColor=#008000;strokeWidth=1.0;startArrow=oval;startFill=0;endFill=0;fontFamily=Helvetica;fontSize=12;edgeStyle=entityRelationEdgeStyle;" parent="1" source="zCZ27iV-oBh6T6M-h3W2-1" target="vwOraKCX8-nlGETa3PWa-1" edge="1">
          <mxGeometry relative="1" as="geometry">
            <mxPoint x="294" y="240" as="sourcePoint" />
            <mxPoint x="520" y="220" as="targetPoint" />
          </mxGeometry>
        </mxCell>
        <mxCell id="2SXLUs-q6uAzSGPsVwRA-2" value="&lt;font color=&quot;#008000&quot;&gt;&lt;span style=&quot;background-color: rgb(248, 249, 250);&quot;&gt;scpo:isOpenAccess&lt;br&gt;&lt;/span&gt;&lt;/font&gt;" style="text;html=1;align=right;verticalAlign=middle;resizable=0;points=[];labelBackgroundColor=#ffffff;fontFamily=Helvetica;fontSize=12;" parent="2SXLUs-q6uAzSGPsVwRA-1" vertex="1" connectable="0">
          <mxGeometry x="-0.0896" y="3" relative="1" as="geometry">
            <mxPoint x="96" y="-41" as="offset" />
          </mxGeometry>
        </mxCell>
        <mxCell id="vwOraKCX8-nlGETa3PWa-1" value="xsd:boolean" style="graphMlID=n6;shape=parallelogram;fillColor=#ccffcc;strokeColor=#000000;strokeWidth=1.0;fontSize=12;fontFamily=Helvetica;horizontal=1;verticalAlign=middle;" parent="1" vertex="1">
          <mxGeometry x="520" y="200" width="120" height="40" as="geometry" />
        </mxCell>
        <mxCell id="wgWTrGgGwobuweLxCGbC-1" value="dcterms:License-&#xa;Document" style="graphMlID=n4;shape=rect;rounded=1;arcsize=30;fillColor=#ffff00;strokeColor=#000000;strokeWidth=1.0;fontFamily=Helvetica;fontSize=12;" parent="1" vertex="1">
          <mxGeometry x="520" y="279" width="120" height="42" as="geometry" />
        </mxCell>
        <mxCell id="wgWTrGgGwobuweLxCGbC-2" value="" style="graphMlID=e0;rounded=0;endArrow=block;strokeColor=#000080;strokeWidth=1.0;startArrow=oval;startFill=1;endFill=1;fontFamily=Helvetica;elbow=vertical;fontSize=12;edgeStyle=entityRelationEdgeStyle;" parent="1" source="zCZ27iV-oBh6T6M-h3W2-1" target="wgWTrGgGwobuweLxCGbC-1" edge="1">
          <mxGeometry relative="1" as="geometry">
            <mxPoint x="660" y="249.5" as="sourcePoint" />
            <mxPoint x="870.8699999999999" y="409.5" as="targetPoint" />
          </mxGeometry>
        </mxCell>
        <mxCell id="wgWTrGgGwobuweLxCGbC-3" value="dcterms:license" style="edgeLabel;html=1;align=right;verticalAlign=middle;resizable=0;points=[];fontSize=12;fontFamily=Helvetica;fontColor=#000080;" parent="wgWTrGgGwobuweLxCGbC-2" vertex="1" connectable="0">
          <mxGeometry x="-0.1053" y="1" relative="1" as="geometry">
            <mxPoint x="103" y="1" as="offset" />
          </mxGeometry>
        </mxCell>
      </root>
    </mxGraphModel>
  </diagram>
  <diagram id="hCFgIDG8ULN1-EdaTiA_" name="PublicationElsewhere">
    <mxGraphModel dx="1834" dy="876" grid="1" gridSize="10" guides="1" tooltips="1" connect="1" arrows="1" fold="1" page="0" pageScale="1" pageWidth="827" pageHeight="1169" background="none" math="0" shadow="0">
      <root>
        <mxCell id="0" />
        <mxCell id="1" parent="0" />
        <mxCell id="Vn8x8JvHJgmlclw_TAvz-1" style="edgeStyle=orthogonalEdgeStyle;rounded=0;orthogonalLoop=1;jettySize=auto;html=1;fontFamily=Helvetica;fontSize=12;" parent="1" source="WmoFHsyIrQBqvttUr2dy-2" target="ebRAN-Nkv8c1K5jTPhsZ-1" edge="1">
          <mxGeometry relative="1" as="geometry" />
        </mxCell>
        <mxCell id="WmoFHsyIrQBqvttUr2dy-2" value="scpo:Publication-&#xa;ElsewhereMandatory-&#xa;Policy" style="graphMlID=n4;shape=rect;rounded=1;arcsize=30;fillColor=#ffff00;strokeColor=#000000;strokeWidth=1.0" parent="1" vertex="1">
          <mxGeometry x="230" y="510" width="130" height="60" as="geometry" />
        </mxCell>
        <mxCell id="WmoFHsyIrQBqvttUr2dy-1" value="scpo:Publication-&#xa;ElsewhereAllowed-&#xa;Policy" style="graphMlID=n4;shape=rect;rounded=1;arcsize=30;fillColor=#ffff00;strokeColor=#000000;strokeWidth=1.0" parent="1" vertex="1">
          <mxGeometry x="230" y="430" width="130" height="60" as="geometry" />
        </mxCell>
        <mxCell id="ebRAN-Nkv8c1K5jTPhsZ-1" value="scpo:Publication-&#xa;ElsewherePolicy" style="graphMlID=n4;shape=rect;rounded=1;arcsize=30;fillColor=#ffff00;strokeColor=#000000;strokeWidth=1.0" parent="1" vertex="1">
          <mxGeometry x="80" y="280" width="120" height="40" as="geometry" />
        </mxCell>
        <mxCell id="mtTmh7vM2n6kcWROznvo-3" value="pso:PublicationStatus" style="graphMlID=n4;shape=rect;rounded=1;arcsize=30;fillColor=#ffff00;strokeColor=#000000;strokeWidth=1.0" parent="1" vertex="1">
          <mxGeometry x="560.87" y="280" width="120" height="40" as="geometry" />
        </mxCell>
        <mxCell id="VNFb0GRt740h9SfV-C6V-1" value="xsd:string" style="graphMlID=n6;shape=parallelogram;fillColor=#ccffcc;strokeColor=#000000;strokeWidth=1.0" parent="1" vertex="1">
          <mxGeometry x="560.87" y="440" width="119.13" height="40" as="geometry" />
        </mxCell>
        <mxCell id="GdkFEA83fZ7BlPsANYyL-1" value="scpo:Platform" style="graphMlID=n4;shape=rect;rounded=1;arcsize=30;fillColor=#ffff00;strokeColor=#000000;strokeWidth=1.0;fontFamily=Helvetica;fontSize=12;" parent="1" vertex="1">
          <mxGeometry x="-140" y="280" width="100" height="40" as="geometry" />
        </mxCell>
        <mxCell id="1QKmCDLcaGl9O1gApkgr-1" value="" style="graphMlID=e0;rounded=0;endArrow=block;strokeColor=#000080;strokeWidth=1.0;startArrow=oval;startFill=1;endFill=1;fontFamily=Helvetica;elbow=vertical;fontSize=12;" parent="1" source="GdkFEA83fZ7BlPsANYyL-1" target="ebRAN-Nkv8c1K5jTPhsZ-1" edge="1">
          <mxGeometry relative="1" as="geometry">
            <mxPoint x="-70" y="310" as="sourcePoint" />
            <mxPoint x="80" y="300" as="targetPoint" />
          </mxGeometry>
        </mxCell>
        <mxCell id="1QKmCDLcaGl9O1gApkgr-2" value="scpo:hasPolicy" style="edgeLabel;html=1;align=center;verticalAlign=middle;resizable=0;points=[];fontSize=12;fontFamily=Helvetica;fontColor=#000080;" parent="1QKmCDLcaGl9O1gApkgr-1" vertex="1" connectable="0">
          <mxGeometry x="-0.1053" y="1" relative="1" as="geometry">
            <mxPoint x="6" y="1" as="offset" />
          </mxGeometry>
        </mxCell>
        <mxCell id="muYZNUo7JSEwoqfO_GLo-6" value="xsd:duration" style="graphMlID=n6;shape=parallelogram;fillColor=#ccffcc;strokeColor=#000000;strokeWidth=1.0;fontFamily=Helvetica;fontSize=12;perimeterSpacing=0;" parent="1" vertex="1">
          <mxGeometry x="560.87" y="360" width="120" height="40" as="geometry" />
        </mxCell>
        <mxCell id="muYZNUo7JSEwoqfO_GLo-7" value="" style="graphMlID=e2;endArrow=block;strokeColor=#008000;strokeWidth=1.0;startArrow=oval;startFill=0;endFill=0;fontFamily=Helvetica;fontSize=12;rounded=0;elbow=vertical;edgeStyle=entityRelationEdgeStyle;" parent="1" source="WmoFHsyIrQBqvttUr2dy-1" target="muYZNUo7JSEwoqfO_GLo-6" edge="1">
          <mxGeometry relative="1" as="geometry">
            <mxPoint x="286.09" y="540" as="sourcePoint" />
            <mxPoint x="956.0899999999998" y="540" as="targetPoint" />
          </mxGeometry>
        </mxCell>
        <mxCell id="muYZNUo7JSEwoqfO_GLo-8" value="&lt;font color=&quot;#008000&quot; style=&quot;&quot;&gt;&lt;span style=&quot;background-color: rgb(248, 249, 250);&quot;&gt;fabio:hasEmbargoDuration&lt;br&gt;&lt;/span&gt;&lt;/font&gt;" style="text;html=1;align=right;verticalAlign=middle;resizable=0;points=[];labelBackgroundColor=#ffffff;fontFamily=Helvetica;fontSize=12;" parent="muYZNUo7JSEwoqfO_GLo-7" vertex="1" connectable="0">
          <mxGeometry x="-0.0896" y="3" relative="1" as="geometry">
            <mxPoint x="90" y="-42" as="offset" />
          </mxGeometry>
        </mxCell>
        <mxCell id="muYZNUo7JSEwoqfO_GLo-9" value="pro:PublishingRole" style="graphMlID=n4;shape=rect;rounded=1;arcsize=30;fillColor=#ffff00;strokeColor=#000000;strokeWidth=1.0" parent="1" vertex="1">
          <mxGeometry x="560.87" y="600" width="120" height="40" as="geometry" />
        </mxCell>
        <mxCell id="Vn8x8JvHJgmlclw_TAvz-2" style="edgeStyle=orthogonalEdgeStyle;rounded=0;orthogonalLoop=1;jettySize=auto;html=1;fontFamily=Helvetica;fontSize=12;" parent="1" source="QfEbnn6-PBtI6ywLUsUV-1" target="ebRAN-Nkv8c1K5jTPhsZ-1" edge="1">
          <mxGeometry relative="1" as="geometry" />
        </mxCell>
        <mxCell id="QfEbnn6-PBtI6ywLUsUV-1" value="scpo:Publication-&#xa;ElsewhereProhibited-&#xa;Policy" style="graphMlID=n4;shape=rect;rounded=1;arcsize=30;fillColor=#ffff00;strokeColor=#000000;strokeWidth=1.0" parent="1" vertex="1">
          <mxGeometry x="230" y="590" width="130" height="60" as="geometry" />
        </mxCell>
        <mxCell id="VNFb0GRt740h9SfV-C6V-2" value="" style="graphMlID=e2;rounded=0;endArrow=block;strokeColor=#008000;strokeWidth=1.0;startArrow=oval;startFill=0;endFill=0;fontFamily=Helvetica;fontSize=12;edgeStyle=entityRelationEdgeStyle;" parent="1" source="WmoFHsyIrQBqvttUr2dy-1" target="VNFb0GRt740h9SfV-C6V-1" edge="1">
          <mxGeometry relative="1" as="geometry">
            <mxPoint x="280" y="380" as="sourcePoint" />
            <mxPoint x="534" y="400" as="targetPoint" />
          </mxGeometry>
        </mxCell>
        <mxCell id="VNFb0GRt740h9SfV-C6V-3" value="&lt;div style=&quot;&quot;&gt;&lt;span style=&quot;background-color: rgb(248, 249, 250); color: rgb(0, 128, 0);&quot;&gt;scpo:publication-&lt;/span&gt;&lt;/div&gt;&lt;font color=&quot;#008000&quot;&gt;&lt;span style=&quot;background-color: rgb(248, 249, 250);&quot;&gt;Condition&lt;br&gt;&lt;/span&gt;&lt;/font&gt;" style="text;html=1;align=right;verticalAlign=middle;resizable=0;points=[];labelBackgroundColor=#ffffff;fontFamily=Helvetica;fontSize=12;" parent="VNFb0GRt740h9SfV-C6V-2" vertex="1" connectable="0">
          <mxGeometry x="-0.0896" y="3" relative="1" as="geometry">
            <mxPoint x="89" y="3" as="offset" />
          </mxGeometry>
        </mxCell>
        <mxCell id="tBJkXbW1Pd402ZqBL0Z--3" value="" style="graphMlID=e0;rounded=0;endArrow=block;strokeColor=#000080;strokeWidth=1.0;startArrow=oval;startFill=1;endFill=1;fontFamily=Helvetica;elbow=vertical;fontSize=12;edgeStyle=entityRelationEdgeStyle;" parent="1" source="ebRAN-Nkv8c1K5jTPhsZ-1" target="mtTmh7vM2n6kcWROznvo-3" edge="1">
          <mxGeometry relative="1" as="geometry">
            <mxPoint x="130" y="800" as="sourcePoint" />
            <mxPoint x="370" y="800" as="targetPoint" />
          </mxGeometry>
        </mxCell>
        <mxCell id="tBJkXbW1Pd402ZqBL0Z--4" value="scpo:appliesToVersion" style="edgeLabel;html=1;align=right;verticalAlign=middle;resizable=0;points=[];fontSize=12;fontFamily=Helvetica;fontColor=#000080;" parent="tBJkXbW1Pd402ZqBL0Z--3" vertex="1" connectable="0">
          <mxGeometry x="-0.1053" y="1" relative="1" as="geometry">
            <mxPoint x="169" y="1" as="offset" />
          </mxGeometry>
        </mxCell>
        <mxCell id="-dXwuUYgTXWYlijpQezr-1" value="" style="graphMlID=e0;rounded=0;endArrow=block;strokeColor=#000080;strokeWidth=1.0;startArrow=oval;startFill=1;endFill=1;fontFamily=Helvetica;elbow=vertical;fontSize=12;edgeStyle=entityRelationEdgeStyle;exitX=1;exitY=0.75;exitDx=0;exitDy=0;" parent="1" source="WmoFHsyIrQBqvttUr2dy-2" target="muYZNUo7JSEwoqfO_GLo-9" edge="1">
          <mxGeometry relative="1" as="geometry">
            <mxPoint x="200" y="460" as="sourcePoint" />
            <mxPoint x="570.8699999999999" y="630" as="targetPoint" />
          </mxGeometry>
        </mxCell>
        <mxCell id="tBJkXbW1Pd402ZqBL0Z--1" value="" style="graphMlID=e0;rounded=0;endArrow=block;strokeColor=#000080;strokeWidth=1.0;startArrow=oval;startFill=1;endFill=1;fontFamily=Helvetica;elbow=vertical;fontSize=12;edgeStyle=entityRelationEdgeStyle;entryX=0;entryY=0.25;entryDx=0;entryDy=0;" parent="1" source="WmoFHsyIrQBqvttUr2dy-1" target="muYZNUo7JSEwoqfO_GLo-9" edge="1">
          <mxGeometry relative="1" as="geometry">
            <mxPoint x="120" y="790" as="sourcePoint" />
            <mxPoint x="360" y="790" as="targetPoint" />
          </mxGeometry>
        </mxCell>
        <mxCell id="tBJkXbW1Pd402ZqBL0Z--2" value="scpo:hasCopyrightOwner" style="edgeLabel;html=1;align=right;verticalAlign=middle;resizable=0;points=[];fontSize=12;fontFamily=Helvetica;fontColor=#000080;" parent="tBJkXbW1Pd402ZqBL0Z--1" vertex="1" connectable="0">
          <mxGeometry x="-0.1053" y="1" relative="1" as="geometry">
            <mxPoint x="93" y="90" as="offset" />
          </mxGeometry>
        </mxCell>
        <mxCell id="0UFydIPKj-3NkdROUOOr-1" value="xsd:string" style="graphMlID=n6;shape=parallelogram;fillColor=#ccffcc;strokeColor=#000000;strokeWidth=1.0" parent="1" vertex="1">
          <mxGeometry x="560.87" y="200" width="126.09" height="40" as="geometry" />
        </mxCell>
        <mxCell id="lo9chXpmunezquyNwhiF-1" value="" style="endArrow=classic;html=1;textDirection=ltr;rounded=0;edgeStyle=orthogonalEdgeStyle;" parent="1" source="WmoFHsyIrQBqvttUr2dy-1" target="ebRAN-Nkv8c1K5jTPhsZ-1" edge="1">
          <mxGeometry width="50" height="50" relative="1" as="geometry">
            <mxPoint x="-130" y="540" as="sourcePoint" />
            <mxPoint x="17.950000000000045" y="540" as="targetPoint" />
          </mxGeometry>
        </mxCell>
        <mxCell id="lo9chXpmunezquyNwhiF-2" value="rdfs:subClassOf" style="text;html=1;align=center;verticalAlign=middle;resizable=0;points=[];labelBackgroundColor=#ffffff;rotation=0;fontFamily=Helvetica;fontSize=12;" parent="lo9chXpmunezquyNwhiF-1" vertex="1" connectable="0">
          <mxGeometry x="-0.2211" relative="1" as="geometry">
            <mxPoint y="-60" as="offset" />
          </mxGeometry>
        </mxCell>
        <mxCell id="Vn8x8JvHJgmlclw_TAvz-3" value="" style="graphMlID=e2;endArrow=block;strokeColor=#008000;strokeWidth=1.0;startArrow=oval;startFill=0;endFill=0;fontFamily=Helvetica;fontSize=12;rounded=0;elbow=vertical;entryX=0;entryY=0.25;entryDx=0;entryDy=0;" parent="1" source="GdkFEA83fZ7BlPsANYyL-1" target="0UFydIPKj-3NkdROUOOr-1" edge="1">
          <mxGeometry relative="1" as="geometry">
            <mxPoint x="-200" y="200" as="sourcePoint" />
            <mxPoint x="0.8699999999998909" y="120" as="targetPoint" />
            <Array as="points">
              <mxPoint x="140" y="210" />
            </Array>
          </mxGeometry>
        </mxCell>
        <mxCell id="Vn8x8JvHJgmlclw_TAvz-4" value="&lt;font color=&quot;#008000&quot; style=&quot;font-size: 12px;&quot;&gt;&lt;span style=&quot;background-color: rgb(248, 249, 250); font-size: 12px;&quot;&gt;scpo:hasPlatformType&lt;br&gt;&lt;/span&gt;&lt;/font&gt;" style="text;html=1;align=right;verticalAlign=middle;resizable=0;points=[];labelBackgroundColor=#ffffff;fontFamily=Helvetica;fontSize=12;" parent="Vn8x8JvHJgmlclw_TAvz-3" vertex="1" connectable="0">
          <mxGeometry x="-0.0896" y="3" relative="1" as="geometry">
            <mxPoint x="90" y="3" as="offset" />
          </mxGeometry>
        </mxCell>
        <mxCell id="Vn8x8JvHJgmlclw_TAvz-5" value="" style="graphMlID=e2;endArrow=block;strokeColor=#008000;strokeWidth=1.0;startArrow=oval;startFill=0;endFill=0;fontFamily=Helvetica;fontSize=12;rounded=0;elbow=vertical;edgeStyle=entityRelationEdgeStyle;entryX=0;entryY=0.75;entryDx=0;entryDy=0;" parent="1" source="ebRAN-Nkv8c1K5jTPhsZ-1" target="0UFydIPKj-3NkdROUOOr-1" edge="1">
          <mxGeometry relative="1" as="geometry">
            <mxPoint x="-190.43" y="240" as="sourcePoint" />
            <mxPoint x="10.439999999999891" y="160" as="targetPoint" />
          </mxGeometry>
        </mxCell>
        <mxCell id="Vn8x8JvHJgmlclw_TAvz-6" value="&lt;font color=&quot;#008000&quot; style=&quot;font-size: 12px;&quot;&gt;&lt;span style=&quot;background-color: rgb(248, 249, 250); font-size: 12px;&quot;&gt;scpo:publicationLocation&lt;br&gt;&lt;/span&gt;&lt;/font&gt;" style="text;html=1;align=right;verticalAlign=middle;resizable=0;points=[];labelBackgroundColor=#ffffff;fontFamily=Helvetica;fontSize=12;" parent="Vn8x8JvHJgmlclw_TAvz-5" vertex="1" connectable="0">
          <mxGeometry x="-0.0896" y="3" relative="1" as="geometry">
            <mxPoint x="166" y="-36" as="offset" />
          </mxGeometry>
        </mxCell>
        <mxCell id="up1PAkQIfScOq0WzqiJk-1" value="dcterms:License-&#xa;Document" style="graphMlID=n4;shape=rect;rounded=1;arcsize=30;fillColor=#ffff00;strokeColor=#000000;strokeWidth=1.0;fontFamily=Helvetica;fontSize=12;" parent="1" vertex="1">
          <mxGeometry x="560" y="519" width="120" height="42" as="geometry" />
        </mxCell>
        <mxCell id="up1PAkQIfScOq0WzqiJk-4" value="" style="graphMlID=e0;rounded=0;endArrow=block;strokeColor=#000080;strokeWidth=1.0;startArrow=oval;startFill=1;endFill=1;fontFamily=Helvetica;elbow=vertical;fontSize=12;edgeStyle=entityRelationEdgeStyle;exitX=1;exitY=0.5;exitDx=0;exitDy=0;" parent="1" source="WmoFHsyIrQBqvttUr2dy-2" edge="1">
          <mxGeometry relative="1" as="geometry">
            <mxPoint x="370" y="470" as="sourcePoint" />
            <mxPoint x="560" y="540" as="targetPoint" />
          </mxGeometry>
        </mxCell>
        <mxCell id="up1PAkQIfScOq0WzqiJk-2" value="" style="graphMlID=e0;rounded=0;endArrow=block;strokeColor=#000080;strokeWidth=1.0;startArrow=oval;startFill=1;endFill=1;fontFamily=Helvetica;elbow=vertical;fontSize=12;edgeStyle=entityRelationEdgeStyle;entryX=0;entryY=0.25;entryDx=0;entryDy=0;" parent="1" source="WmoFHsyIrQBqvttUr2dy-1" target="up1PAkQIfScOq0WzqiJk-1" edge="1">
          <mxGeometry relative="1" as="geometry">
            <mxPoint x="370" y="470" as="sourcePoint" />
            <mxPoint x="570.8699999999999" y="620" as="targetPoint" />
          </mxGeometry>
        </mxCell>
        <mxCell id="up1PAkQIfScOq0WzqiJk-3" value="dcterms:license" style="edgeLabel;html=1;align=right;verticalAlign=middle;resizable=0;points=[];fontSize=12;fontFamily=Helvetica;fontColor=#000080;" parent="up1PAkQIfScOq0WzqiJk-2" vertex="1" connectable="0">
          <mxGeometry x="-0.1053" y="1" relative="1" as="geometry">
            <mxPoint x="90" y="46" as="offset" />
          </mxGeometry>
        </mxCell>
      </root>
    </mxGraphModel>
  </diagram>
</mxfile>
